<svg width="236" height="181" viewBox="0 0 236 181" fill="none" xmlns="http://www.w3.org/2000/svg">
<path d="M75.75 181C61.25 181 48.3333 177.417 37 170.25C25.6667 163.083 16.75 152.75 10.25 139.25C3.91667 125.583 0.75 109.333 0.75 90.5C0.75 71.6667 3.91667 55.5 10.25 42C16.75 28.3333 25.6667 17.9167 37 10.75C48.3333 3.58333 61.25 -3.09944e-06 75.75 -3.09944e-06C90.25 -3.09944e-06 103.167 3.58333 114.5 10.75C125.833 17.9167 134.667 28.3333 141 42C147.5 55.5 150.75 71.6667 150.75 90.5C150.75 109.333 147.5 125.583 141 139.25C134.667 152.75 125.833 163.083 114.5 170.25C103.167 177.417 90.25 181 75.75 181ZM75.75 146.75C86.4167 146.75 94.75 142.167 100.75 133C106.917 123.833 110 109.667 110 90.5C110 71.3333 106.917 57.1667 100.75 48C94.75 38.8333 86.4167 34.25 75.75 34.25C65.25 34.25 56.9167 38.8333 50.75 48C44.75 57.1667 41.75 71.3333 41.75 90.5C41.75 109.667 44.75 123.833 50.75 133C56.9167 142.167 65.25 146.75 75.75 146.75ZM236.463 2.99999V178H195.963V35.5H160.963V2.99999H236.463Z" fill="#3C3C3C"/>
</svg>
